<?xml version="1.0" encoding="UTF-8"?>
<svg id="Layer_1" data-name="Layer 1" xmlns="http://www.w3.org/2000/svg" viewBox="0 0 150 201">
  <defs>
    <style>
      .cls-1 {
        opacity: .5;
      }

      .cls-2 {
        fill: #2e3144;
      }

      .cls-2, .cls-3 {
        stroke-width: 0px;
      }

      .cls-3 {
        fill: #fff;
      }
    </style>
  </defs>
  <g id="Layer_2" data-name="Layer 2">
    <rect class="cls-2" width="150" height="201"/>
  </g>
  <g class="cls-1">
    <g>
      <path class="cls-3" d="M43.09,90.21c-.76,0-1.51-.37-1.97-1.05l-3.53-5.25c-.51-.76-.54-1.75-.07-2.54l10.6-17.66c.44-.73,1.24-1.17,2.09-1.15.85.02,1.63.5,2.03,1.25l9.45,17.66c.42.78.36,1.73-.14,2.46l-3.62,5.25c-.74,1.08-2.22,1.35-3.29.61-1.08-.74-1.35-2.22-.61-3.29l2.8-4.06-6.8-12.71-7.68,12.79,2.69,4c.73,1.08.44,2.56-.64,3.29-.41.27-.87.4-1.32.4Z"/>
      <path class="cls-3" d="M85.94,99.45c-.69,0-1.38-.3-1.85-.89l-15.38-19.18c-.79-.98-.67-2.41.27-3.25l4.45-3.97-5.3-3.15v18.88c0,1.31-1.06,2.37-2.37,2.37s-2.37-1.06-2.37-2.37v-23.04c0-.85.46-1.64,1.2-2.06.74-.42,1.65-.41,2.38.02l11.66,6.93c.65.39,1.07,1.06,1.15,1.81.07.75-.22,1.49-.78,1.99l-5.19,4.62,13.97,17.43c.82,1.02.65,2.51-.37,3.33-.44.35-.96.52-1.48.52Z"/>
      <path class="cls-3" d="M92.91,90.29c-.62,0-1.24-.24-1.71-.73l-10.65-11.07c-.88-.92-.88-2.37,0-3.28l10.65-11.07c.91-.94,2.4-.97,3.35-.07.94.91.97,2.4.07,3.35l-9.07,9.43,9.07,9.43c.91.94.88,2.44-.07,3.35-.46.44-1.05.66-1.64.66Z"/>
      <path class="cls-3" d="M92.88,79.21h-2.36c-1.31,0-2.37-1.06-2.37-2.37s1.06-2.37,2.37-2.37h2.36c1.31,0,2.37,1.06,2.37,2.37s-1.06,2.37-2.37,2.37Z"/>
      <path class="cls-3" d="M99.6,90.29c-.7,0-1.39-.31-1.85-.89-.81-1.02-.65-2.51.38-3.33l7.94-6.33-7.53-3.76c-.73-.37-1.23-1.09-1.3-1.91-.07-.82.28-1.62.94-2.11l10.84-8.09c1.05-.78,2.53-.57,3.31.48.78,1.05.57,2.53-.48,3.31l-7.76,5.79,7.41,3.7c.72.36,1.21,1.07,1.3,1.87.08.8-.25,1.6-.88,2.1l-10.84,8.64c-.44.35-.96.52-1.47.52Z"/>
    </g>
    <g>
      <path class="cls-3" d="M34.59,138.51c-.7,0-1.39-.31-1.85-.89-.81-1.02-.65-2.51.38-3.33l14.22-11.33-13.81-6.9c-.73-.37-1.23-1.09-1.3-1.91-.07-.82.28-1.62.94-2.11l17.12-12.77c1.05-.78,2.53-.57,3.31.48.78,1.05.57,2.53-.48,3.31l-14.04,10.47,13.69,6.84c.72.36,1.21,1.07,1.3,1.87.08.8-.25,1.6-.88,2.1l-17.12,13.64c-.44.35-.96.52-1.47.52Z"/>
      <path class="cls-3" d="M58.89,129.48c-1.31,0-2.37-1.06-2.37-2.37v-22.3c0-.86.47-1.65,1.22-2.07.75-.42,1.67-.4,2.4.06l12.93,8.04c.75.46,1.18,1.31,1.11,2.18-.06.88-.61,1.65-1.42,2l-11.41,4.94s-.06.03-.1.04v7.11c0,1.31-1.06,2.37-2.37,2.37ZM61.26,109.07v5.78l5.48-2.37-5.48-3.4Z"/>
      <path class="cls-3" d="M85.52,129.4c-.75,0-1.45-.35-1.9-.95l-7.28-9.78c-.59-.8-.63-1.88-.08-2.71l8.1-12.37c.46-.7,1.26-1.11,2.1-1.07.84.04,1.59.52,1.98,1.27l6.47,12.37c.42.81.34,1.78-.2,2.51l-7.28,9.78c-.45.6-1.15.95-1.9.95ZM81.12,117.17l4.4,5.9,4.5-6.03-3.91-7.48-4.98,7.61Z"/>
      <path class="cls-3" d="M117.78,105.49c-.04,1.28-1.09,2.3-2.37,2.3-.02,0-.04,0-.07,0l-7.76-.22-1.78,10.54c.56.13,1.06.46,1.41.93.44.62.56,1.42.31,2.14l-2.27,6.61c-.34.98-1.26,1.6-2.24,1.6-.26,0-.51-.04-.77-.13-1.24-.42-1.89-1.77-1.47-3.01l1.27-3.69c-.32-.14-.6-.36-.83-.63-.45-.53-.64-1.24-.53-1.92l2.13-12.6-6.32-.18c-1.31-.04-2.34-1.13-2.3-2.43.04-1.31,1.12-2.34,2.43-2.3l18.86.53c1.31.04,2.34,1.13,2.3,2.43Z"/>
    </g>
  </g>
</svg>