<?xml version="1.0" encoding="UTF-8"?>
<svg id="Layer_1" data-name="Layer 1" xmlns="http://www.w3.org/2000/svg" viewBox="0 0 850 281.35">
  <defs>
    <style>
      .cls-1 {
        fill: #da1c5c;
      }

      .cls-1, .cls-2 {
        stroke-width: 0px;
      }

      .cls-2 {
        fill: #fff;
      }
    </style>
  </defs>
  <g>
    <path class="cls-2" d="M34.77,153.53c-3.83,0-7.59-1.84-9.89-5.26l-17.78-26.39c-2.58-3.83-2.71-8.82-.33-12.78L60.1,20.28c2.21-3.67,6.22-5.87,10.5-5.77,4.28.11,8.18,2.51,10.2,6.28l47.54,88.83c2.1,3.93,1.84,8.7-.69,12.37l-18.19,26.39c-3.73,5.41-11.15,6.78-16.56,3.05-5.41-3.73-6.78-11.14-3.05-16.56l14.07-20.41-34.21-63.93L31.09,114.87l13.54,20.1c3.67,5.45,2.23,12.85-3.22,16.53-2.04,1.37-4.35,2.03-6.64,2.03Z"/>
    <path class="cls-2" d="M250.29,200c-3.49,0-6.94-1.53-9.3-4.46l-77.34-96.46c-3.96-4.94-3.36-12.12,1.37-16.33l22.38-19.95-26.66-15.85v94.96c0,6.58-5.33,11.91-11.91,11.91s-11.91-5.33-11.91-11.91V26.02c0-4.28,2.3-8.23,6.02-10.35,3.72-2.12,8.29-2.07,11.97.11l58.63,34.84c3.26,1.94,5.4,5.32,5.77,9.09.36,3.78-1.1,7.5-3.93,10.03l-26.08,23.25,70.27,87.65c4.11,5.13,3.29,12.62-1.84,16.74-2.2,1.76-4.83,2.62-7.44,2.62Z"/>
    <path class="cls-2" d="M285.33,153.91c-3.13,0-6.25-1.22-8.58-3.65l-53.55-55.69c-4.43-4.61-4.43-11.9,0-16.5l53.55-55.69c4.56-4.74,12.09-4.89,16.83-.33,4.74,4.56,4.89,12.09.33,16.83l-45.61,47.44,45.61,47.44c4.56,4.74,4.41,12.28-.33,16.83-2.31,2.22-5.28,3.32-8.25,3.32Z"/>
    <path class="cls-2" d="M285.14,98.23h-11.85c-6.58,0-11.91-5.33-11.91-11.91s5.33-11.91,11.91-11.91h11.85c6.58,0,11.91,5.33,11.91,11.91s-5.33,11.91-11.91,11.91Z"/>
    <path class="cls-2" d="M318.98,153.91c-3.5,0-6.97-1.54-9.32-4.49-4.1-5.14-3.25-12.63,1.89-16.73l39.94-31.82-37.85-18.92c-3.7-1.85-6.17-5.48-6.53-9.6-.37-4.12,1.43-8.13,4.74-10.6l54.53-40.67c5.27-3.93,12.73-2.85,16.66,2.43,3.93,5.27,2.85,12.73-2.43,16.66l-39.04,29.12,37.25,18.62c3.64,1.82,6.09,5.36,6.52,9.41.42,4.04-1.24,8.02-4.42,10.55l-54.53,43.44c-2.19,1.75-4.81,2.59-7.41,2.59Z"/>
    <path class="cls-2" d="M426.56,199.71c-3.5,0-6.97-1.54-9.32-4.49-4.1-5.14-3.25-12.63,1.89-16.73l71.53-56.99-69.44-34.72c-3.7-1.85-6.17-5.48-6.53-9.6-.37-4.12,1.43-8.13,4.74-10.6L505.55,2.36c5.27-3.93,12.73-2.85,16.66,2.43,3.93,5.27,2.85,12.73-2.43,16.66l-70.63,52.68,68.84,34.42c3.64,1.82,6.09,5.36,6.52,9.41.42,4.04-1.24,8.02-4.42,10.55l-86.12,68.61c-2.19,1.75-4.81,2.59-7.41,2.59Z"/>
    <path class="cls-2" d="M548.76,154.3c-6.58,0-11.91-5.33-11.91-11.91V30.25c0-4.32,2.34-8.31,6.12-10.41,3.78-2.1,8.4-1.99,12.07.29l65.03,40.42c3.76,2.34,5.91,6.57,5.59,10.99-.33,4.42-3.08,8.29-7.14,10.05l-57.38,24.86c-.16.07-.32.13-.48.2v35.74c0,6.58-5.33,11.91-11.91,11.91ZM560.67,51.67v29.05l27.54-11.93-27.54-17.11Z"/>
    <path class="cls-2" d="M682.67,153.91c-3.76,0-7.3-1.78-9.55-4.79l-36.63-49.16c-2.99-4.01-3.15-9.45-.41-13.64l40.73-62.22c2.31-3.53,6.33-5.58,10.54-5.37,4.22.21,8.01,2.63,9.97,6.37l32.54,62.22c2.12,4.05,1.73,8.96-1,12.63l-36.63,49.16c-2.25,3.02-5.79,4.79-9.55,4.79ZM660.55,92.41l22.12,29.68,22.62-30.35-19.67-37.61-25.06,38.28Z"/>
    <path class="cls-2" d="M844.92,33.65c-.18,6.46-5.48,11.58-11.9,11.58-.11,0-.22,0-.34,0l-39.01-1.11-8.95,53.03c2.83.64,5.35,2.29,7.07,4.69,2.24,3.13,2.82,7.15,1.57,10.78l-11.41,33.25c-1.7,4.94-6.32,8.04-11.26,8.04-1.28,0-2.59-.21-3.87-.65-6.21-2.14-9.52-8.91-7.4-15.12l6.37-18.53c-1.6-.72-3.03-1.8-4.19-3.17-2.27-2.67-3.23-6.21-2.65-9.66l10.7-63.35-31.8-.9c-6.57-.18-11.75-5.66-11.57-12.24.18-6.57,5.65-11.77,12.24-11.56l94.84,2.68c6.57.18,11.75,5.67,11.57,12.24Z"/>
  </g>
  <g>
    <path class="cls-1" d="M426.97,222.38h22.29c3.26,0,5.88.12,7.84.35,1.96.24,3.54.63,4.73,1.18,2.46,1.11,4.36,2.66,5.71,4.67,1.34,2.01,2.01,4.3,2.01,6.87,0,4.04-1.42,7.46-4.27,10.25-2.85,2.79-6.59,4.4-11.21,4.81,3.68.69,6.54,2.11,8.59,4.25,2.05,2.14,3.07,4.77,3.07,7.87,0,2.91-.64,5.59-1.91,8.05s-3.1,4.55-5.48,6.27c-2.21,1.55-4.8,2.67-7.76,3.36-2.96.69-7.1,1.04-12.41,1.04h-23.78l12.58-58.98ZM435.07,255.7l-3.15,14.86h7.06c3.74,0,6.61-.73,8.61-2.2,2-1.47,3.01-3.57,3.01-6.31,0-2.13-.66-3.72-1.97-4.77-1.31-1.05-3.29-1.58-5.91-1.58h-7.64ZM439.96,232.46l-2.78,13.53h5.44c3.62,0,6.45-.67,8.49-2.01,2.03-1.34,3.05-3.19,3.05-5.54,0-1.83-.64-3.28-1.91-4.36-1.27-1.08-3.02-1.62-5.23-1.62h-7.06Z"/>
    <path class="cls-1" d="M510.4,221.01c8.16,0,14.54,2.24,19.13,6.7,4.59,4.47,6.89,10.67,6.89,18.61,0,4.23-.65,8.4-1.95,12.51-1.3,4.11-3.08,7.7-5.35,10.77-3.21,4.29-7.09,7.56-11.64,9.82-4.55,2.25-9.58,3.38-15.09,3.38-8.22,0-14.63-2.26-19.24-6.79-4.61-4.52-6.91-10.8-6.91-18.82,0-4.21.57-8.26,1.72-12.16,1.15-3.9,2.77-7.29,4.88-10.17,3.38-4.65,7.35-8.12,11.91-10.42s9.78-3.45,15.65-3.45ZM520.15,245.49c0-4.32-.94-7.65-2.82-10-1.88-2.35-4.54-3.53-7.97-3.53-2.41,0-4.67.71-6.79,2.12-2.12,1.41-4.02,3.49-5.71,6.23-1.38,2.24-2.5,4.96-3.36,8.16-.86,3.2-1.29,6.32-1.29,9.36,0,4.15.96,7.42,2.86,9.82,1.91,2.39,4.52,3.59,7.84,3.59,2.41,0,4.63-.68,6.68-2.05,2.05-1.37,4.01-3.48,5.89-6.33,1.38-2.19,2.5-4.87,3.36-8.05.86-3.18,1.29-6.28,1.29-9.3Z"/>
    <path class="cls-1" d="M551.19,222.38h19.38l9.17,29.92c.83,2.66,1.47,4.94,1.91,6.85.44,1.91.76,3.74.95,5.48h.71c.11-1.63.33-3.45.66-5.44s.79-4.32,1.37-6.97l6.31-29.84h14.36l-12.58,58.98h-19.38l-10.04-33c-.47-1.49-.87-3.02-1.2-4.59-.33-1.56-.58-3.2-.75-4.92h-.62c-.28,2.16-.57,4.21-.87,6.16-.3,1.95-.64,3.78-1,5.5l-6.52,30.84h-14.44l12.58-58.98Z"/>
    <path class="cls-1" d="M635.07,222.38h19.55l9.5,58.98h-15.65l-1.54-12.58h-23.12l-7.06,12.58h-16.56l34.86-58.98ZM642.96,233.91l-13.07,23.74h15.9l-2.82-23.74Z"/>
    <path class="cls-1" d="M680.89,222.38h19.38l9.17,29.92c.83,2.66,1.47,4.94,1.91,6.85.44,1.91.76,3.74.95,5.48h.71c.11-1.63.33-3.45.66-5.44s.79-4.32,1.37-6.97l6.31-29.84h14.36l-12.58,58.98h-19.38l-10.04-33c-.47-1.49-.87-3.02-1.2-4.59-.33-1.56-.58-3.2-.75-4.92h-.62c-.28,2.16-.57,4.21-.87,6.16-.3,1.95-.64,3.78-1,5.5l-6.52,30.84h-14.44l12.58-58.98Z"/>
    <path class="cls-1" d="M746.39,222.38h45.49l-2.82,11.87-36.36,35.73h28.97l-2.78,11.37h-45.99l2.78-13.78,34.28-33.99h-25.94l2.37-11.21Z"/>
    <path class="cls-1" d="M817.9,222.38h19.55l9.5,58.98h-15.65l-1.54-12.58h-23.12l-7.06,12.58h-16.56l34.86-58.98ZM825.78,233.91l-13.07,23.74h15.9l-2.82-23.74Z"/>
  </g>
</svg>