<?xml version="1.0" encoding="UTF-8"?>
<svg id="Layer_1" data-name="Layer 1" xmlns="http://www.w3.org/2000/svg" viewBox="0 0 500 600">
  <defs>
    <style>
      .cls-1, .cls-2, .cls-3, .cls-4 {
        stroke-width: 0px;
      }

      .cls-1, .cls-3 {
        fill: #414052;
      }

      .cls-1, .cls-4 {
        isolation: isolate;
      }

      .cls-2 {
        fill: #2f2e3d;
      }

      .cls-3, .cls-4 {
        fill-rule: evenodd;
      }

      .cls-4 {
        fill: #fff;
        opacity: .2;
      }
    </style>
  </defs>
  <g>
    <circle class="cls-2" cx="249.41" cy="252" r="244"/>
    <path class="cls-1" d="M496.58,252c-.1,134.29-113.34,245.17-247.17,244.5C115.64,498.03,2.28,385.84,2.24,252,1.05,53,222.66-66.54,388.01,44.58c67.78,45.46,109.82,125.93,108.57,207.42h0ZM490.24,252c-.13-130.83-110.46-238.81-240.83-238.16C119.1,12.34,8.65,121.61,8.58,252c-1.21,193.93,214.77,310.47,375.9,202.15,66.05-44.33,106.99-122.73,105.76-202.15h0Z"/>
  </g>
  <path class="cls-4" d="M268.99,170.58c17.46,2.84,35.35,7.38,51.39,15.76,14.48,7.67,29.95,20.3,31.09,38.75.47,6.25.57,14.05.28,23.42-.28,7.52-.85,14.2-2.7,22.29-2.46,11.07-7.81,20.73-16.04,28.96-14.48,14.76-32.08,23.99-52.1,28.96-4.26.85-9.23,1.85-13.77,2.7-14.86,1.89-29.24,2.74-43.15,2.56-11.07-.28-23.14-2.27-33.93-5.96-16.28-5.87-27.68-16.94-34.21-33.22-4.26-11.07-6.53-22.43-7.38-34.21-1.04-12.49-1.56-24.7-1.56-36.62,0-20.3,13.91-35.77,31.37-44.15,2.27-.85,5.54-2.41,8.38-3.26,12.63-4.4,25.84-6.81,39.46-7.52,14.2-.85,28.67-.57,42.87,1.56h0ZM199.86,281.59c6.25,6.39,14.48,10.08,23.14,11.92,5.77,1.23,11.64,2.08,17.6,2.56,12.07.85,24.27.85,36.34-.28,12.63-1.56,25.27-3.83,36.06-9.65,9.23-4.54,14.76-12.35,18.17-21.86,4.54-12.49,6.39-25.55,5.54-39.18-.85-14.05-14.76-23.42-26.55-28.25-15.05-6.81-30.8-10.79-47.13-12.63-12.63-1.56-25.84-1.56-38.47.28-14.76,2.41-35.06,9.23-36.34,27.11-.57,8.38-.57,16.89-.57,25.27.28,8.66.57,15.76,2.13,23.71,1.56,7.38,4.54,15.47,10.08,21.01h0ZM220.59,157.09c.57,1.14.57,2.98,0,4.26-.99,1.28-2.84,2.13-3.97,2.56-2.46.38-6.2.85-11.21,1.42-2.7.43-4.26-.28-5.82-2.7-3.5-5.58-7.38-10.74-11.64-15.47-1.89-1.99-3.88-4.12-5.96-6.39-1.14-1.28-2.13-2.56-1.85-4.4.71-2.7,6.25-4.26,8.94-4.83,2.27-.99,4.97-1.28,7.1-.71,1.85.28,3.69,1.28,4.97,2.56,3.31,2.18,6.39,4.92,9.23,8.23,2.46,2.93,4.73,5.91,6.81,8.94,1.42,2.27,2.56,4.45,3.41,6.53h0ZM311.72,169.44c-.28,1.42-.85,2.98-2.13,3.69-1.28.85-3.41.85-4.54.57-2.27-.85-5.77-2.08-10.5-3.69-2.56-.99-3.69-2.13-3.97-4.97-.66-6.53-1.94-12.87-3.83-19.02-.76-2.93-1.56-5.73-2.41-8.38-.28-1.85-.57-3.41.57-4.68,1.56-2.41,7.1-1.14,10.22-.57,2.13.28,4.68,1.28,6.53,2.84,1.14.85,2.41,2.7,3.41,4.26,1.8,3.5,3.22,7.43,4.26,11.78.85,3.41,1.56,7.1,2.13,11.07.19,2.46.28,4.83.28,7.1ZM287.16,229.21c3.69,3.69,6.39,8.23,4.26,13.2-.85,2.46-2.51,4.92-4.97,7.38-6.72,6.81-14.62,11.73-23.71,14.76-6.39,2.13-14.2,3.12-18.45-2.7-3.97-5.25-5.54-13.34-5.82-19.73-.28-8.09.57-17.6,5.82-24.42,4.54-4.83,12.35-3.97,18.45-2.13,8.94,2.56,17.6,7.1,24.42,13.63Z"/>
  <path class="cls-3" d="M351.13,450.53c1.58,1.58,2.71,3.62,1.81,5.88-.45,1.06-1.21,2.11-2.26,3.17-2.87,2.87-6.33,4.98-10.41,6.33-2.71.9-6.11,1.36-7.92-1.13-1.81-2.26-2.49-5.66-2.49-8.6-.23-3.39.23-7.69,2.49-10.63,2.04-2.26,5.43-1.81,7.92-.9,4.07,1.13,7.92,2.94,10.86,5.88ZM115.62,510.03c0-21.49,16.52-37.1,39.14-37.1s39.14,15.61,39.14,37.1-16.29,37.33-39.14,37.33-39.14-15.84-39.14-37.33ZM169.91,510.03c0-9.05-6.33-15.61-15.16-15.61s-14.93,6.33-14.93,15.61,6.33,15.61,14.93,15.61,15.16-6.33,15.16-15.61ZM200.91,510.03c0-21.49,16.52-37.1,39.14-37.1s39.14,15.61,39.14,37.1-16.29,37.33-39.14,37.33-39.14-15.84-39.14-37.33ZM255.2,510.03c0-9.05-6.33-15.61-15.16-15.61s-14.93,6.33-14.93,15.61,6.33,15.61,14.93,15.61,15.16-6.33,15.16-15.61ZM290.27,450.08h24.21v94.79h-24.21v-94.79ZM415.6,524.06v21.04h-16.52c-15.38,0-24.66-9.28-24.66-24.89v-26.24h-12.9v-5.66l31.22-33.26h4.98v20.36h17.65v18.55h-16.97v22.17c0,4.98,2.94,7.92,8.14,7.92h9.05ZM497.5,475.42l-28.05,69.68h-21.72l-28.51-69.68h26.24l13.35,41.17,12.9-41.17h25.79ZM44.58,545.1h-19.23S3.4,478.14,2.5,475.42h0v-.23h25.11c0,.23,10.63,36.65,10.63,36.65,0,0,16.52-36.2,16.52-36.42.9-1.96,2.34-2.64,4.3-2.04.9.23,1.36.9,1.81,1.58.23.23,17.42,36.88,17.65,37.33.23,0,10.63-37.1,10.63-37.1h24.21c.15,0,.23.08.23.23h0l-22.4,69.68h-19.23s-13.8-31.22-13.8-30.99c-.23.23-13.57,30.99-13.57,30.99h0ZM329.63,476.55c0-.68.45-1.36,1.36-1.36h21.27c.68,0,1.36.68,1.36,1.36v67.19c0,.68-.68,1.36-1.36,1.36h-21.27c-.9,0-1.36-.68-1.36-1.36v-67.19Z"/>
</svg>